@startuml
'https://plantuml.com/class-diagram
interface DataBase {
    Get()
    Has()
    Set()
    Delete()
    Iterator()
}


interface IStore {
    GetBlock()
    SetBlock()
    IterateBlock()
}

class Store {
    DataBase db
}

class RocksDB
class LevelDB
class LiteDB
class MemDB

DataBase <|-- RocksDB
DataBase <|-- LevelDB
DataBase <|-- LiteDB
DataBase <|-- MemDB
class ConcreteRocksDB
class ConcreteLevelDB

IStore  <|-- Store
Store *-- DataBase
RocksDB *-- ConcreteRocksDB
LevelDB *-- ConcreteLevelDB
LiteDB *-- ConcreteLiteDB

interface IStateStore
IStateStore <|-- TrieStateStore
class TrieStateStore {
    DataBase db
}

TrieStateStore *-- DataBase

'interface IStore
'class RocksDBStore
'class MonoRocksDBStore


'abstract class AbstractList
'abstract AbstractCollection
'interface List
'interface Collection
'
'List <|-- AbstractList
'Collection <|-- AbstractCollection
'
'Collection <|- List
'AbstractCollection <|- AbstractList
'AbstractList <|-- ArrayList
'
'class ArrayList {
'Object[] elementData
'size()
'}
'
'enum TimeUnit {
'DAYS
'HOURS
'MINUTES
'}

@enduml
